<?xml version="1.0" standalone="no"?>
<!DOCTYPE svg PUBLIC "-//W3C//DTD SVG 1.1//EN" "http://www.w3.org/Graphics/SVG/1.1/DTD/svg11.dtd"><svg t="1770599478662"
  class="icon" viewBox="0 0 1024 1024" version="1.1" xmlns="http://www.w3.org/2000/svg" p-id="6547"
  xmlns:xlink="http://www.w3.org/1999/xlink" width="128" height="128">
  <path
    d="M300.05592 0h423.88816c200.041092 0 300.05592 100.014829 300.05592 300.05592v423.88816c0 200.041092-100.014829 300.05592-300.05592 300.05592H300.05592C100.014829 1024 0 923.973737 0 723.94408V300.05592C0 100.014829 100.014829 0 300.05592 0z"
    fill="#6C6CEA" opacity=".15" p-id="6548"></path>
  <path
    d="M784.30515 283.636429h-544.6103c-11.365581 0-20.581536 9.215954-20.581535 20.581535s9.215954 20.581536 20.581535 20.581536h41.757649v384.874715c0 16.945464 13.743892 30.689356 30.689356 30.689356h399.71629c16.945464 0 30.689356-13.743892 30.689356-30.689356v-384.874715h41.757649c11.365581 0 20.581536-9.215954 20.581535-20.581536s-9.215954-20.581536-20.581535-20.581535z"
    fill="#6C6CEA" p-id="6549"></path>
  <path
    d="M357.238287 663.331457c-5.374068 0-10.725267-2.092456-14.761535-6.243065-7.923891-8.152575-7.72951-21.187547 0.423065-29.100005l101.718522-98.779936c10.210728-9.91344 26.287195-10.668096 37.378356-1.749431l37.138237 29.843227 105.663317-114.296128h-29.79749c-11.365581 0-20.581536-9.215954-20.581535-20.581535s9.215954-20.581536 20.581535-20.581536h67.827594a24.534334 24.534334 0 1 1 18.020278 41.185939L541.191478 594.086024c-10.039216 10.851043-26.916075 12.097369-38.441735 2.847113l-37.629907-30.231989-93.531645 90.833177c-4.001965 3.887623-9.170218 5.820001-14.33847 5.820001z"
    fill="#FFFFFF" p-id="6550"></path>
</svg>